<?xml version="1.0" encoding="UTF-8" standalone="no"?>
<!-- Created with Inkscape (http://www.inkscape.org/) -->

<svg
   width="189.6306mm"
   height="209.33345mm"
   viewBox="0 0 189.6306 209.33345"
   version="1.1"
   id="svg5"
   sodipodi:docname="Bloomsbury Publishing (Icon).svg"
   inkscape:version="1.1.2 (b8e25be833, 2022-02-05)"
   xmlns:inkscape="http://www.inkscape.org/namespaces/inkscape"
   xmlns:sodipodi="http://sodipodi.sourceforge.net/DTD/sodipodi-0.dtd"
   xmlns="http://www.w3.org/2000/svg"
   xmlns:svg="http://www.w3.org/2000/svg">
  <sodipodi:namedview
     id="namedview7"
     pagecolor="#ffffff"
     bordercolor="#666666"
     borderopacity="1.0"
     inkscape:pageshadow="2"
     inkscape:pageopacity="0.0"
     inkscape:pagecheckerboard="0"
     inkscape:document-units="mm"
     showgrid="false"
     inkscape:zoom="0.64052329"
     inkscape:cx="233.40291"
     inkscape:cy="345.03039"
     inkscape:window-width="1920"
     inkscape:window-height="1017"
     inkscape:window-x="-8"
     inkscape:window-y="-8"
     inkscape:window-maximized="1"
     inkscape:current-layer="layer1" />
  <defs
     id="defs2" />
  <g
     inkscape:label="Layer 1"
     inkscape:groupmode="layer"
     id="layer1"
     transform="translate(-102.3102,11.910046)">
    <path
       style="fill:#26337a;fill-rule:evenodd;stroke-width:2.49722"
       d="m 187.41688,0.81198445 c 0.23499,-1.0286068 0.93146,-1.84195295 1.73357,-2.49797265 -0.48222,3.2546314 -0.20252,6.8973309 1.99254,9.5124232 2.05296,2.544671 5.53135,3.437927 8.6801,3.079825 0.22725,-1.8042429 -0.39655,-4.2917275 1.54379,-5.3400623 0.13742,1.761042 0.56637,3.6234706 1.91762,4.8685863 2.49946,2.413317 6.20809,2.943478 8.74302,5.309847 2.77691,2.605603 4.46952,6.174134 5.30411,9.850047 0.29442,1.573501 1.28332,2.87031 1.8377,4.329436 -0.17481,1.155217 -1.74581,1.41293 -2.21005,2.440786 -0.44949,1.08854 -0.33687,2.364872 -1.02136,3.354521 -1.4781,2.234016 -4.41734,2.92625 -5.83875,5.207213 -1.12826,1.904873 -1.43341,4.365399 -0.54141,6.421615 0.61432,1.381956 1.97506,2.20229 3.31857,2.770653 6.12294,2.42231 12.50385,4.273508 19.03882,5.170502 8.13071,1.202672 16.5516,1.286073 24.52024,-0.9402 4.1876,-1.18219 8.36545,-3.016897 11.41505,-6.23132 1.06882,-0.813348 2.4373,-0.790118 3.68092,-0.441757 0.0397,1.078798 0.52167,2.056461 0.73618,3.096307 0.0977,0.998636 0.0276,2.01301 -0.1173,3.004153 -0.85879,0.753161 -1.94034,1.222402 -3.08633,1.199172 -3.56628,-0.593345 -7.10933,0.351108 -10.51055,1.301811 -8.18591,2.380593 -16.81906,2.611344 -25.2769,2.206282 -4.02054,-0.191031 -8.02858,-0.63853 -11.99692,-1.282573 -2.3374,-0.338364 -4.70451,-0.635781 -7.06189,-0.508929 -2.04573,0.108137 -4.08071,1.26209 -4.95225,3.1535 -1.17869,2.290697 -0.29941,5.01592 -1.34349,7.346322 -1.32079,3.254144 -4.33295,5.350064 -6.1232,8.300526 -2.45701,3.901164 -4.10069,8.450608 -4.17012,13.087952 -0.12515,3.273104 1.41294,6.250543 2.71698,9.153561 0.65127,1.353508 1.42567,2.870319 2.93899,3.414709 2.22003,0.87079 4.65233,0.93147 6.95201,1.52331 5.60926,1.35 11.31767,2.96045 16.16005,6.22083 2.27247,1.49284 3.97257,3.67392 5.40897,5.95313 4.76196,7.53761 10.19617,14.66519 16.39154,21.08705 3.93586,4.11119 7.61177,8.6821 12.66815,11.48724 3.75383,2.11939 7.95641,3.58251 12.29633,3.76731 1.06183,0.15149 2.33265,0.0208 3.21942,0.74342 0.66901,0.76939 -0.44949,1.54029 -1.14871,1.69461 -4.2403,1.11477 -8.63341,-1.02511 -12.88119,0.1528 -1.81797,0.4927 -3.29108,1.99553 -5.24616,2.00252 -0.94421,0.10061 -2.07819,-0.18679 -2.45477,-1.15446 -0.84682,-1.96581 -0.48997,-4.20257 -1.22615,-6.19461 -0.66475,-1.65991 -2.07768,-2.85908 -3.55853,-3.7828 -2.01302,-1.24937 -4.13041,-2.32766 -6.13094,-3.58327 -4.64508,-2.79264 -8.53551,-6.62637 -12.21142,-10.55726 -2.76218,-2.96545 -5.29137,-6.15715 -7.40152,-9.61305 -0.85456,-1.33852 -1.83845,-2.86832 -3.49137,-3.23216 -2.35488,-0.51019 -4.75746,-0.0347 -7.11683,0.12957 -8.01384,0.73693 -16.16003,0.83033 -24.07123,-0.82033 -3.2514,-0.62931 -6.42262,-1.54029 -9.60884,-2.39409 -2.46975,3.17046 -3.83098,6.98098 -5.87096,10.40567 -2.50246,4.56443 -5.46143,8.84293 -8.14145,13.29596 -3.38574,5.52511 -6.78696,11.56815 -12.62046,14.84576 -3.28385,1.567 -6.32572,3.56553 -9.61731,5.11931 -8.06553,4.12815 -15.54497,9.28866 -22.96197,14.46665 -2.18956,1.63818 -4.46953,3.1445 -6.59966,4.84562 -2.54268,2.04573 -3.68366,5.27363 -4.17787,8.39392 -0.36507,2.20628 -0.46997,4.63085 0.69174,6.63262 0.88627,1.5263 1.8879,3.03962 2.12988,4.83562 -1.04907,-0.0205 -2.22277,0.15002 -3.06933,-0.58685 -1.67538,-1.28632 -2.80663,-3.16698 -3.591,-5.09958 -0.68375,-1.6132 -0.3696,-3.40122 -0.61658,-5.08883 -0.37233,-2.61135 -3.30357,-4.21907 -3.06434,-6.99798 0.13742,-1.87391 2.14562,-2.57812 3.64345,-3.13376 1.9728,-0.59609 3.84373,-1.59348 5.22469,-3.15724 2.90652,-3.24764 5.54634,-6.72977 8.47058,-9.95769 4.61961,-5.16948 10.08079,-9.62205 16.199,-12.89041 3.1345,-1.68761 6.62063,-2.59436 9.74941,-4.29173 1.90786,-1.01437 3.78578,-2.51096 4.33292,-4.71026 0.70147,-2.96096 0.8588,-6.01406 1.15098,-9.0332 0.3074,-4.44756 1.24586,-8.82644 2.52994,-13.08496 1.47311,-4.64433 3.80551,-9.06792 7.12208,-12.66316 3.87069,-4.24229 8.6324,-7.512648 13.34465,-10.730818 2.98444,-2.066211 6.16366,-4.172111 7.98912,-7.410009 1.05632,-1.713598 1.58298,-3.692155 1.89514,-5.667211 0.56189,-3.790524 0.4048,-7.647747 0.008,-11.448512 -1.04408,-6.03229 1.23863,-12.001907 0.90599,-18.042197 -0.0798,-1.67139 -0.7489,-3.377986 -2.13212,-4.379632 -2.06546,-1.517806 -4.64508,-2.025247 -7.10211,-2.504451 -5.00468,-0.897501 -10.12674,-1.785269 -14.67417,-4.172111 -3.34329,-1.72734 -6.19037,-4.433577 -7.97564,-7.757632 -0.39006,-0.820587 -0.87928,-1.805242 -0.4545,-2.708488 0.38158,-0.91798 1.51782,-1.044838 2.39683,-1.068062 2.28023,0.07992 4.47529,0.843811 6.58819,1.666896 4.41009,1.751303 8.24832,4.594891 12.16348,7.208483 4.74996,3.177466 10.00936,5.852498 15.73749,6.605905 2.6121,0.335387 5.31684,0.542892 7.89622,-0.110591 1.14623,-0.321399 2.41756,-1.014374 2.64481,-2.299695 0.30715,-1.194918 -0.69672,-2.146356 -1.19143,-3.120535 1.39596,0.509191 2.89953,0.894262 4.39313,0.545902 2.26722,-0.458738 3.96758,-2.227026 5.28911,-4.025029 1.55801,-2.179576 2.77641,-4.680296 3.11603,-7.361814 0.15509,-1.359738 -0.0347,-2.959708 -1.19842,-3.844475 -1.13397,-0.930965 -2.67927,-0.598834 -4.00804,-0.537903 1.02861,-1.245864 2.6518,-1.473112 4.07823,-2.026745 1.04333,-0.374585 1.58548,-1.596226 1.36322,-2.654548 -0.37233,-2.401082 -2.34714,-4.201828 -4.47726,-5.149025 -4.89207,-2.270976 -10.3937,-2.391341 -15.55272,-3.710625 -4.23028,-1.053329 -8.86315,-3.1642314 -10.55076,-7.4956664 1.86243,1.3095444 3.61073,3.1704761 6.08549,3.1195325 0.0327,-2.2759703 -0.65677,-4.6068775 0.0921,-6.83315237 z"
       id="path826" />
    <path
       d="m 216.52952,-10.018474 c 5.46193,-1.460376 11.13562,-2.03299 16.78658,-1.862428 13.25276,-0.254717 26.51277,4.6775487 36.42924,13.4722702 4.21057,3.7907846 7.77411,8.4710808 9.50693,13.9232678 2.3027,7.220972 1.65566,15.257536 -1.43066,22.153619 -1.55802,3.639704 -3.74832,6.978246 -6.29025,10.007872 -1.24362,-0.348361 -2.6121,-0.371591 -3.68092,0.441757 2.2545,-3.157983 3.55855,-6.870603 4.46955,-10.613946 1.10926,-4.329438 1.09653,-8.847663 0.71219,-13.274741 -0.18978,-2.856324 -1.48085,-5.447693 -2.38484,-8.115726 -2.17258,-5.859735 -5.91143,-11.1463568 -10.94309,-14.8802052 -5.17174,-3.9436155 -11.25249,-6.5684466 -17.51276,-8.226353 -8.11374,-2.1456141 -16.65699,-2.6438115 -24.9625,-1.5028293 -2.99917,0.3985563 -5.92342,1.1751932 -8.89512,1.6671462 2.50722,-1.5395385 5.38128,-2.3806027 8.19565,-3.1897037 z m -19.53303,5.6679484 c 0.65702,-0.6200614 1.16595,-1.3867076 1.80299,-2.0322408 0.12466,0.913735 0.18978,1.8347107 0.32714,2.7486943 0.82658,0.3453648 1.68538,0.6320463 2.44978,1.1352367 -0.6845,0.678995 -1.7653,0.877276 -2.31269,1.6771354 -0.0394,0.93371159 0.0574,1.8679238 0,2.7996379 -0.77639,-0.5189234 -1.42066,-1.19916661 -2.17732,-1.7343219 -1.19144,0.10612441 -2.0777,1.1105158 -3.26612,1.2678407 0.32213,-1.22114236 1.27832,-2.14211804 1.63792,-3.3475291 -0.12516,-0.8580453 -0.81684,-1.5198088 -1.15371,-2.3034379 0.87927,-0.07442 1.8829,0.2979189 2.69201,-0.2110153 z M 284.9939,38.117012 c 0.32688,-0.676754 0.91872,-0.137355 0.9789,0.384318 0.21952,1.674891 0.21952,3.372244 0.43451,5.049376 0.0594,0.525927 0.74893,0.566122 1.1737,0.653286 1.42067,0.08409 2.85407,-0.210269 4.27974,-0.04744 0.22251,0.58685 -0.48696,0.740433 -0.82108,1.02936 -1.28107,0.929975 -2.90427,1.552276 -3.76381,2.949725 -0.21727,2.068191 0.28467,4.133895 0.28467,6.209349 -1.96781,-0.656279 -3.2314,-2.436542 -5.0294,-3.358027 -1.67564,-0.321383 -2.85407,1.330032 -4.47727,1.426913 0.33961,-1.39295 1.52606,-2.518438 1.46587,-4.001546 -0.70421,-1.483092 -2.63183,-1.911875 -3.21168,-3.448168 1.74081,-0.593083 3.72136,-0.02323 5.40199,-0.757398 1.50557,-1.771036 2.09242,-4.121168 3.28386,-6.089729 z m -92.6375,15.161132 c 0.91173,-1.098527 1.20416,-2.568891 1.9728,-3.760815 0.55439,1.557266 0.51742,3.291591 1.18143,4.804407 1.19842,1.082299 2.94399,1.104777 4.39037,1.697369 -1.08678,0.918229 -2.36512,1.558019 -3.44667,2.467757 -0.43676,0.291413 -0.1693,0.84731 -0.17705,1.269076 0.1,0.954203 0.17705,1.908391 0.21727,2.866324 -0.91874,-0.739926 -1.6704,-1.712354 -2.72447,-2.25325 -1.34851,0.371591 -2.52221,1.18219 -3.85098,1.593486 0.19478,-1.667153 1.1737,-3.174228 1.15896,-4.861846 -0.72919,-1.640683 -2.2922,-2.725223 -3.08156,-4.341171 1.44063,0.13284 2.92649,0.909477 4.3599,0.518663 z m 76.70745,1.697615 c 1.14598,0.02323 2.22753,-0.446011 3.08633,-1.199172 1.59621,1.0858 3.5463,1.442651 5.21969,2.39409 5.6687,2.962453 10.19066,8.001604 12.56353,13.935017 2.65156,6.586175 2.73645,14.242658 -0.10486,20.780393 -2.15536,5.398995 -6.00134,9.966153 -10.54378,13.531193 -2.44929,1.7171 -4.9118,3.44443 -7.6088,4.73848 -3.30383,1.68338 -6.91456,2.70201 -10.57573,3.17973 -6.93504,0.92097 -14.22394,0.73343 -20.72946,-2.09244 -3.66117,-1.53753 -7.04966,-3.68314 -10.08654,-6.2358 -1.26833,-1.12052 -2.7819,-2.22554 -3.11878,-3.99307 2.41732,1.61745 4.67257,3.47864 7.21947,4.9113 7.11485,4.01154 15.74749,5.50162 23.72389,3.52507 7.00445,-1.67263 13.40208,-5.65021 18.18727,-11.01724 6.40288,-6.933554 9.64903,-17.029328 7.36131,-26.309512 -0.91099,-3.683893 -2.81386,-7.072382 -5.19871,-9.998877 -2.3529,-3.006149 -5.63174,-5.333066 -9.39482,-6.149162 z m -49.73744,28.944316 c 0.50193,-0.03337 0.51966,0.508193 0.67174,0.869788 0.18755,0.660517 0.33763,1.33651 0.51968,2.005518 0.92647,0.03664 1.86293,-0.01309 2.79463,0.133821 -0.42976,1.053833 -1.58848,1.581232 -2.08541,2.594363 0.0926,1.142486 0.39704,2.263737 0.33987,3.419703 -0.76165,-0.341882 -1.47886,-0.756172 -2.20306,-1.155966 -0.94344,-0.759656 -1.98479,0.228494 -2.95172,0.412031 0.16981,-0.692467 0.39706,-1.371961 0.63205,-2.051471 -0.67675,-0.615806 -1.41368,-1.172931 -2.04997,-1.82571 0.93147,-0.401299 2.01751,-0.505444 2.85132,-1.120498 0.78939,-0.94146 0.79712,-2.274485 1.48087,-3.281612 z"
       style="fill:#939598;fill-rule:evenodd;stroke-width:2.49722"
       id="path824" />
  </g>
</svg>
